<svg width="15" height="18" viewBox="0 0 15 18" fill="none" xmlns="http://www.w3.org/2000/svg">
<path d="M13.2632 8.82373H14.9994" stroke="#2A2A2A" stroke-width="1.26506"/>
<path d="M0 8.82373H9.56314" stroke="#2A2A2A" stroke-width="1.26506"/>
<path d="M5.81592 3.20996H14.9997" stroke="#2A2A2A" stroke-width="1.26506"/>
<path d="M0 3.20996H2.12172" stroke="#2A2A2A" stroke-width="1.26506"/>
<path d="M8.4248 14.437H14.9997" stroke="#2A2A2A" stroke-width="1.26506"/>
<path d="M0 14.437H4.72452" stroke="#2A2A2A" stroke-width="1.26506"/>
<path d="M3.96899 5.2024C4.9909 5.2024 5.81932 4.26166 5.81932 3.1012C5.81932 1.94074 4.9909 1 3.96899 1C2.94707 1 2.11865 1.94074 2.11865 3.1012C2.11865 4.26166 2.94707 5.2024 3.96899 5.2024Z" stroke="#2A2A2A" stroke-width="1.26506"/>
<path d="M11.4133 10.9246C12.4352 10.9246 13.2637 9.98383 13.2637 8.82337C13.2637 7.66291 12.4352 6.72217 11.4133 6.72217C10.3914 6.72217 9.56299 7.66291 9.56299 8.82337C9.56299 9.98383 10.3914 10.9246 11.4133 10.9246Z" stroke="#2A2A2A" stroke-width="1.26506"/>
<path d="M6.57446 16.5383C7.59637 16.5383 8.42479 15.5976 8.42479 14.4371C8.42479 13.2767 7.59637 12.3359 6.57446 12.3359C5.55254 12.3359 4.72412 13.2767 4.72412 14.4371C4.72412 15.5976 5.55254 16.5383 6.57446 16.5383Z" stroke="#2A2A2A" stroke-width="1.26506"/>
</svg>
