<svg width="190" height="49" viewBox="0 0 190 49" fill="none" xmlns="http://www.w3.org/2000/svg">
<path d="M21.9067 9.88623V3.86011H2.90674V45.2631H21.9067V39.237C18.0146 39.237 14.2818 37.6908 11.5297 34.9386C8.77751 32.1864 7.23137 28.4538 7.23137 24.5616C7.23137 20.6695 8.77751 16.9367 11.5297 14.1846C14.2818 11.4324 18.0146 9.88623 21.9067 9.88623Z" fill="#394149"/>
<path d="M21.9067 9.88623V39.237C25.7989 39.237 29.5317 37.6908 32.2839 34.9386C35.036 32.1864 36.5821 28.4538 36.5821 24.5616C36.5821 20.6695 35.036 16.9367 32.2839 14.1846C29.5317 11.4324 25.7989 9.88623 21.9067 9.88623Z" fill="#394149"/>
<path d="M47.2448 13.5729H51.4985V34.0617H47.2448V13.5729Z" fill="#394149"/>
<path d="M53.8806 27.043C53.8806 25.5689 54.3183 24.1281 55.1381 22.903C55.9579 21.6779 57.123 20.7238 58.4858 20.1616C59.8485 19.5995 61.3474 19.4546 62.7925 19.7453C64.2377 20.036 65.564 20.7492 66.6033 21.7945C67.6426 22.8399 68.3483 24.1702 68.6308 25.617C68.9131 27.0638 68.7597 28.5619 68.1897 29.9214C67.6197 31.2807 66.659 32.4404 65.4293 33.2532C64.1995 34.066 62.7561 34.4954 61.282 34.487C60.3044 34.4947 59.335 34.3071 58.4308 33.935C57.5266 33.5631 56.7056 33.0144 56.0162 32.3212C55.3268 31.6278 54.7829 30.8037 54.4161 29.8974C54.0494 28.9911 53.8674 28.0206 53.8806 27.043ZM64.5432 27.043C64.5265 26.4075 64.3228 25.791 63.9575 25.2707C63.5922 24.7504 63.0818 24.3492 62.4897 24.1176C61.8977 23.8859 61.2506 23.8338 60.6292 23.9681C60.0078 24.1022 59.4398 24.4166 58.9961 24.872C58.5524 25.3273 58.2528 25.9033 58.1349 26.528C58.0169 27.1527 58.0856 27.7983 58.3326 28.3841C58.5796 28.9698 58.9938 29.4699 59.5236 29.8214C60.0531 30.173 60.6746 30.3606 61.3104 30.3609C61.7433 30.3694 62.1732 30.2884 62.5733 30.1231C62.9735 29.9579 63.3352 29.7119 63.6359 29.4006C63.9367 29.0892 64.1699 28.719 64.3212 28.3134C64.4725 27.9078 64.5384 27.4753 64.5149 27.043H64.5432Z" fill="#394149"/>
<path d="M85.5142 20.0243V33.3668C85.5142 38.0743 81.8276 40.0736 78.0985 40.0736C76.7831 40.1815 75.4638 39.9201 74.289 39.319C73.1141 38.7178 72.1304 37.8005 71.4485 36.6706L75.0358 34.6004C75.3265 35.1866 75.7889 35.6701 76.3614 35.9867C76.934 36.3033 77.5894 36.438 78.2403 36.3728C78.6551 36.4239 79.0759 36.3827 79.4728 36.2523C79.8698 36.1217 80.2329 35.9052 80.5363 35.6179C80.8399 35.3307 81.0761 34.98 81.2283 34.5908C81.3804 34.2017 81.4447 33.7837 81.4164 33.3668V32.0765C80.9214 32.6767 80.2933 33.1532 79.5821 33.4682C78.8707 33.7833 78.0958 33.9282 77.3187 33.8915C75.4384 33.8915 73.6352 33.1445 72.3057 31.8149C70.9761 30.4855 70.2291 28.6822 70.2291 26.8019C70.2291 24.9216 70.9761 23.1185 72.3057 21.7889C73.6352 20.4593 75.4384 19.7124 77.3187 19.7124C78.0958 19.6756 78.8707 19.8206 79.5821 20.1356C80.2933 20.4507 80.9214 20.9271 81.4164 21.5273V20.1094L85.5142 20.0243ZM81.4164 26.7594C81.4447 26.0811 81.2694 25.4097 80.9131 24.8317C80.5568 24.2538 80.0358 23.7957 79.4169 23.5162C78.7981 23.2367 78.11 23.1488 77.4408 23.2637C76.7717 23.3785 76.152 23.6909 75.6619 24.1606C75.1717 24.6304 74.8332 25.2361 74.69 25.8998C74.5468 26.5636 74.6054 27.2548 74.8582 27.8849C75.1111 28.515 75.5467 29.0551 76.1089 29.4357C76.6713 29.8163 77.3346 30.02 78.0135 30.0206C78.4566 30.0525 78.9014 29.9911 79.3191 29.8405C79.7369 29.6898 80.1186 29.4531 80.4392 29.1457C80.7599 28.8385 81.0126 28.4673 81.1809 28.0562C81.3492 27.6452 81.4295 27.2033 81.4164 26.7594Z" fill="#394149"/>
<path d="M87.9104 27.0429C87.9104 25.57 88.3474 24.1303 89.166 22.9058C89.9845 21.6812 91.1479 20.7271 92.509 20.1642C93.87 19.6012 95.3675 19.4546 96.8119 19.743C98.2563 20.0314 99.5826 20.7417 100.623 21.7842C101.664 22.8268 102.372 24.1545 102.657 25.5994C102.943 27.0444 102.793 28.5415 102.228 29.9014C101.662 31.2615 100.706 32.4231 99.4798 33.2393C98.2538 34.0556 96.8132 34.4898 95.3403 34.487C94.3608 34.4965 93.3891 34.3103 92.4825 33.9394C91.5758 33.5684 90.7523 33.0203 90.0604 32.3269C89.3683 31.6336 88.8217 30.809 88.4525 29.9017C88.0834 28.9944 87.8991 28.0224 87.9104 27.0429ZM98.5731 27.0429C98.5564 26.4069 98.3522 25.7898 97.9864 25.2691C97.6205 24.7486 97.1091 24.3475 96.5163 24.1162C95.9234 23.885 95.2756 23.8338 94.6538 23.9692C94.0321 24.1045 93.4641 24.4204 93.021 24.8771C92.5779 25.3338 92.2794 25.9112 92.1631 26.5367C92.0467 27.1623 92.1175 27.8083 92.3666 28.3938C92.6157 28.9794 93.0322 29.4783 93.5638 29.8283C94.0952 30.1781 94.7181 30.3634 95.3544 30.3608C95.7873 30.3694 96.2172 30.2884 96.6174 30.1231C97.0175 29.9579 97.3792 29.7119 97.6799 29.4005C97.9807 29.0891 98.2139 28.7189 98.3652 28.3134C98.5165 27.9077 98.5825 27.4753 98.5589 27.0429H98.5731Z" fill="#394149"/>
<path d="M104.741 16.2668C104.741 15.7677 104.889 15.2797 105.166 14.8646C105.444 14.4496 105.838 14.1261 106.299 13.935C106.76 13.744 107.268 13.694 107.757 13.7914C108.247 13.8888 108.697 14.1292 109.05 14.4822C109.403 14.8351 109.643 15.2849 109.74 15.7744C109.838 16.264 109.788 16.7714 109.597 17.2327C109.406 17.6938 109.082 18.088 108.667 18.3653C108.252 18.6427 107.764 18.7907 107.265 18.7907C106.598 18.7833 105.96 18.515 105.488 18.0433C105.017 17.5716 104.748 16.9339 104.741 16.2668ZM105.152 20.0243H109.406V34.0616H105.152V20.0243Z" fill="#394149"/>
<path d="M127.612 27.043C127.66 27.9765 127.522 28.9103 127.208 29.7906C126.893 30.6708 126.407 31.4802 125.779 32.172C125.15 32.8639 124.391 33.4245 123.545 33.8218C122.699 34.2191 121.782 34.4452 120.849 34.487C120.056 34.5397 119.262 34.4128 118.525 34.1158C117.789 33.8186 117.129 33.359 116.595 32.7713V39.7049H112.341V20.0243H116.595V21.343C117.13 20.7569 117.79 20.2995 118.527 20.0049C119.263 19.7101 120.057 19.5859 120.849 19.6415C121.779 19.6833 122.691 19.908 123.535 20.3026C124.378 20.6972 125.135 21.2542 125.763 21.9415C126.391 22.6287 126.878 23.433 127.195 24.3084C127.512 25.1836 127.654 26.1128 127.612 27.043ZM123.358 27.043C123.341 26.3843 123.131 25.7454 122.752 25.2062C122.374 24.667 121.845 24.2512 121.231 24.0115C120.618 23.7716 119.947 23.7182 119.303 23.8579C118.66 23.9976 118.071 24.3243 117.612 24.7968C117.153 25.2694 116.844 25.8669 116.724 26.5146C116.603 27.1622 116.676 27.831 116.934 28.4373C117.191 29.0435 117.622 29.5602 118.172 29.9226C118.723 30.285 119.367 30.4769 120.026 30.4743C120.477 30.4934 120.927 30.417 121.347 30.25C121.767 30.083 122.146 29.8291 122.461 29.5052C122.776 29.1812 123.018 28.7942 123.173 28.37C123.327 27.9456 123.391 27.4934 123.358 27.043Z" fill="#394149"/>
<path d="M140.558 29.8504C140.558 33.0832 137.722 34.4586 134.716 34.4586C133.49 34.5689 132.259 34.309 131.182 33.7125C130.105 33.116 129.232 32.2102 128.675 31.1123L132.334 29.0422C132.479 29.5481 132.793 29.9889 133.224 30.2909C133.655 30.5929 134.176 30.7377 134.702 30.7011C135.708 30.7011 136.219 30.3892 136.219 29.822C136.219 28.2765 129.313 29.0989 129.313 24.2355C129.313 21.1728 131.894 19.6414 134.815 19.6414C135.925 19.5917 137.028 19.8436 138.007 20.3704C138.985 20.8971 139.803 21.6791 140.373 22.6332L136.715 24.5616C136.553 24.1958 136.289 23.8847 135.955 23.6657C135.62 23.4468 135.229 23.3296 134.829 23.328C134.092 23.328 133.652 23.6116 133.652 24.1078C133.652 25.7243 140.558 24.6608 140.558 29.8504Z" fill="#394149"/>
<path d="M155.97 20.0243V34.0616H151.716V32.7429C151.233 33.3267 150.619 33.7885 149.926 34.0915C149.231 34.3945 148.475 34.5299 147.718 34.487C144.882 34.487 142.458 32.4594 142.458 28.6735V20.0243H146.711V28.0355C146.677 28.3704 146.717 28.7086 146.828 29.0267C146.938 29.3448 147.115 29.6352 147.348 29.8779C147.582 30.1205 147.865 30.3097 148.179 30.4323C148.492 30.5548 148.828 30.6079 149.164 30.5877C150.696 30.5877 151.773 29.6803 151.773 27.7519V20.0243H155.97Z" fill="#394149"/>
<path d="M180.075 25.4408V34.0617H175.821V25.8094C175.821 24.3915 175.154 23.5124 173.807 23.5124C172.46 23.5124 171.61 24.4908 171.61 26.1497V34.0617H167.356V25.8094C167.356 24.3915 166.69 23.5124 165.342 23.5124C163.995 23.5124 163.145 24.4908 163.145 26.1497V34.0617H158.891V20.0243H163.145V21.3146C163.586 20.7446 164.16 20.2932 164.819 20.0011C165.477 19.709 166.199 19.5854 166.916 19.6415C167.635 19.6039 168.353 19.7542 168.996 20.0774C169.64 20.4005 170.189 20.8856 170.589 21.4848C171.057 20.8586 171.675 20.3612 172.387 20.0389C173.097 19.7165 173.88 19.5798 174.658 19.6415C177.976 19.6415 180.075 21.9385 180.075 25.4408Z" fill="#394149"/>
<path d="M183.648 19.9392C185.37 19.9392 186.767 18.5426 186.767 16.8198C186.767 15.0971 185.37 13.7004 183.648 13.7004C181.925 13.7004 180.528 15.0971 180.528 16.8198C180.528 18.5426 181.925 19.9392 183.648 19.9392Z" fill="#394149"/>
</svg>
