<svg width="120" height="47" viewBox="0 0 120 47" fill="none" xmlns="http://www.w3.org/2000/svg">
<g clip-path="url(#clip0_1_54)">
<path d="M28.4842 0.484741C23.7978 0.484741 19.3035 2.34636 15.9898 5.66006L5.17532 16.4746C1.86162 19.7883 0 24.2826 0 28.9689C0 38.7277 7.91098 46.6386 17.6697 46.6386C22.356 46.6386 26.8503 44.7769 30.164 41.4632L37.6445 33.9827C37.6445 33.9826 37.6446 33.9829 37.6445 33.9827L59.44 12.1872C61.0226 10.6046 63.1691 9.71551 65.4072 9.71551C69.1543 9.71551 72.3311 12.1577 73.4325 15.5372L80.3111 8.65853C77.1731 3.74373 71.6708 0.484741 65.4072 0.484741C60.7209 0.484741 56.2266 2.34636 52.9129 5.66006L23.6369 34.9361C22.0543 36.5187 19.9078 37.4078 17.6697 37.4078C13.009 37.4078 9.23077 33.6297 9.23077 28.9689C9.23077 26.7307 10.1199 24.5843 11.7025 23.0017L22.5169 12.1872C24.0995 10.6046 26.246 9.71551 28.4842 9.71551C32.2314 9.71551 35.408 12.1578 36.5094 15.5374L43.3881 8.6587C40.2501 3.74382 34.7478 0.484741 28.4842 0.484741Z" fill="#394149"/>
<path d="M60.56 34.9361C58.9774 36.5187 56.831 37.4078 54.5928 37.4078C50.8462 37.4078 47.6697 34.9663 46.568 31.5874L39.6896 38.4658C42.8277 43.38 48.3297 46.6386 54.5928 46.6386C59.2791 46.6386 63.7734 44.7769 67.0871 41.4632L96.3631 12.1872C97.9457 10.6046 100.092 9.71551 102.33 9.71551C106.991 9.71551 110.769 13.4937 110.769 18.1544C110.769 20.3926 109.88 22.539 108.298 24.1217L97.4831 34.9361C95.9005 36.5187 93.754 37.4078 91.5159 37.4078C87.769 37.4078 84.5923 34.9658 83.4908 31.5866L76.6123 38.4652C79.7503 43.3798 85.2525 46.6386 91.5159 46.6386C96.2022 46.6386 100.696 44.7769 104.01 41.4632L114.825 30.6487C118.138 27.335 120 22.8407 120 18.1544C120 8.39573 112.089 0.484741 102.33 0.484741C97.644 0.484741 93.1497 2.34636 89.836 5.66006L60.56 34.9361Z" fill="#394149"/>
</g>
<defs>
<clipPath id="clip0_1_54">
<rect width="120" height="46.1538" fill="white" transform="translate(0 0.484741)"/>
</clipPath>
</defs>
</svg>
