<svg width="170" height="45" viewBox="0 0 170 45" fill="none" xmlns="http://www.w3.org/2000/svg">
<path d="M59.3447 28.4632H69.283V25.757H62.6271V12.938H59.3447V28.4632Z" fill="#394149"/>
<path d="M76.0166 28.6908C79.5492 28.6908 81.7476 26.2725 81.7476 22.6868C81.7476 19.0784 79.5492 16.6677 76.0166 16.6677C72.4841 16.6677 70.2857 19.0784 70.2857 22.6868C70.2857 26.2725 72.4841 28.6908 76.0166 28.6908ZM76.0318 26.1891C74.4019 26.1891 73.5681 24.6956 73.5681 22.664C73.5681 20.6324 74.4019 19.1315 76.0318 19.1315C77.6314 19.1315 78.4652 20.6324 78.4652 22.664C78.4652 24.6956 77.6314 26.1891 76.0318 26.1891Z" fill="#394149"/>
<path d="M88.4529 33.0724C91.7809 33.0724 94.146 31.5561 94.146 28.577V16.8194H90.9394V18.7752H90.8182C90.386 17.8275 89.4385 16.6677 87.4902 16.6677C84.9355 16.6677 82.775 18.6539 82.775 22.6186C82.775 26.4923 84.8749 28.2965 87.4978 28.2965C89.355 28.2965 90.3936 27.3641 90.8182 26.4013H90.9546V28.5315C90.9546 30.1311 89.9311 30.7527 88.5287 30.7527C87.1035 30.7527 86.3834 30.1311 86.1181 29.426L83.1314 29.8278C83.5179 31.6623 85.3145 33.0724 88.4529 33.0724ZM88.5211 25.8707C86.9368 25.8707 86.0726 24.6123 86.0726 22.6034C86.0726 20.6248 86.9217 19.2376 88.5211 19.2376C90.0904 19.2376 90.9697 20.5642 90.9697 22.6034C90.9697 24.6577 90.0752 25.8707 88.5211 25.8707Z" fill="#394149"/>
<path d="M101.336 28.6908C104.869 28.6908 107.067 26.2725 107.067 22.6868C107.067 19.0784 104.869 16.6677 101.336 16.6677C97.8039 16.6677 95.6054 19.0784 95.6054 22.6868C95.6054 26.2725 97.8039 28.6908 101.336 28.6908ZM101.352 26.1891C99.7218 26.1891 98.8879 24.6956 98.8879 22.664C98.8879 20.6324 99.7218 19.1315 101.352 19.1315C102.951 19.1315 103.785 20.6324 103.785 22.664C103.785 24.6956 102.951 26.1891 101.352 26.1891Z" fill="#394149"/>
<path d="M108.527 28.4632H111.756V16.8193H108.527V28.4632ZM110.149 15.3183C111.112 15.3183 111.9 14.583 111.9 13.6809C111.9 12.7864 111.112 12.051 110.149 12.051C109.194 12.051 108.406 12.7864 108.406 13.6809C108.406 14.583 109.194 15.3183 110.149 15.3183Z" fill="#394149"/>
<path d="M113.703 32.8298H116.932V26.5984H117.03C117.478 27.5688 118.455 28.6528 120.335 28.6528C122.989 28.6528 125.059 26.553 125.059 22.6564C125.059 18.6539 122.898 16.6677 120.343 16.6677C118.395 16.6677 117.463 17.8275 117.03 18.7752H116.886V16.8194H113.703V32.8298ZM116.864 22.6413C116.864 20.5642 117.743 19.2376 119.312 19.2376C120.913 19.2376 121.761 20.6248 121.761 22.6413C121.761 24.6729 120.897 26.0829 119.312 26.0829C117.759 26.0829 116.864 24.7185 116.864 22.6413Z" fill="#394149"/>
<path d="M136.26 20.1396C135.971 17.9944 134.243 16.6677 131.302 16.6677C128.322 16.6677 126.359 18.0474 126.366 20.2913C126.359 22.0349 127.458 23.1644 129.732 23.6193L131.749 24.021C132.764 24.2257 133.227 24.5971 133.242 25.1808C133.227 25.8707 132.477 26.3634 131.347 26.3634C130.194 26.3634 129.429 25.8707 129.232 24.9231L126.056 25.0899C126.359 27.3186 128.254 28.6908 131.34 28.6908C134.356 28.6908 136.517 27.1518 136.525 24.8549C136.517 23.172 135.417 22.1638 133.159 21.7013L131.051 21.2767C129.967 21.0418 129.566 20.6703 129.574 20.1093C129.566 19.412 130.354 18.9571 131.354 18.9571C132.477 18.9571 133.144 19.5711 133.302 20.3216L136.26 20.1396Z" fill="#394149"/>
<path d="M145.385 23.5055C145.392 25.0671 144.323 25.8858 143.163 25.8858C141.943 25.8858 141.155 25.0292 141.147 23.657V16.8193H137.918V24.2332C137.925 26.9547 139.517 28.6149 141.859 28.6149C143.611 28.6149 144.869 27.7128 145.392 26.3482H145.513V28.4632H148.614V16.8193H145.385V23.5055Z" fill="#394149"/>
<path d="M150.556 28.4633H153.786V21.4739C153.786 20.1852 154.605 19.3286 155.681 19.3286C156.742 19.3286 157.455 20.0563 157.455 21.201V28.4633H160.586V21.3526C160.586 20.1472 161.276 19.3286 162.451 19.3286C163.482 19.3286 164.255 19.9729 164.255 21.2692V28.4633H167.477V20.6324C167.477 18.108 165.976 16.6677 163.807 16.6677C162.102 16.6677 160.775 17.5395 160.298 18.8737H160.177C159.806 17.5243 158.614 16.6677 157.015 16.6677C155.446 16.6677 154.256 17.5016 153.771 18.8737H153.634V16.8194H150.556V28.4633Z" fill="#394149"/>
<path d="M19.1507 2.98926H29.2152L25.1753 14.2789C18.0648 15.5284 12.6264 22.4078 12.6264 30.7071C12.6264 34.451 13.7332 37.906 15.6009 40.6855H2.23691L14.4541 6.54369C15.2223 4.39694 17.0823 2.98926 19.1507 2.98926Z" fill="#2A2A2A"/>
<path d="M29.2149 2.98926L26.3757 10.9236L25.5202 2.98926H29.2149Z" fill="black" fill-opacity="0.3"/>
<path d="M35.5847 2.98926H25.5202L29.5431 14.2313C36.795 15.3424 42.3817 22.2954 42.3817 30.7071C42.3817 34.451 41.2749 37.906 39.4072 40.6855H52.4985L40.2813 6.5437C39.5131 4.39694 37.6531 2.98926 35.5847 2.98926Z" fill="#585858"/>
<path d="M17.3558 39.599C15.6359 37.1497 14.6103 34.0623 14.6103 30.707C14.6103 22.7468 20.3831 16.2938 27.5042 16.2938C34.6254 16.2938 40.3983 22.7468 40.3983 30.707C40.3983 34.0623 39.3727 37.1497 37.6528 39.599C34.8293 37.4971 31.3143 36.2506 27.5042 36.2506C23.6942 36.2506 20.1792 37.4971 17.3558 39.599Z" fill="#585858"/>
</svg>
