<svg width="160" height="41" viewBox="0 0 160 41" fill="none" xmlns="http://www.w3.org/2000/svg">
<path d="M0 38.49H36.0329V2.45715H0V38.49ZM29.0974 17.0066H21.4835V9.3926H29.0974V17.0066ZM6.93404 9.3926H14.5522V23.9406H29.0974V31.5546H6.93404V9.3926ZM59.4971 2.45715C55.9337 2.45715 52.4504 3.51381 49.4877 5.49348C46.5248 7.47315 44.2157 10.2869 42.852 13.579C41.4884 16.8711 41.1317 20.4935 41.8268 23.9884C42.522 27.4832 44.2379 30.6934 46.7575 33.2131C49.2771 35.7328 52.4873 37.4486 55.9822 38.1439C59.4772 38.839 63.0995 38.4823 66.3917 37.1187C69.6838 35.755 72.4975 33.4458 74.4772 30.483C76.4568 27.5202 77.5135 24.0368 77.5135 20.4736C77.5079 15.697 75.6079 11.1177 72.2304 7.74022C68.8529 4.36268 64.2737 2.46273 59.4971 2.45715ZM59.4971 31.5546C57.3055 31.5546 55.163 30.9047 53.3407 29.687C51.5186 28.4695 50.0982 26.7389 49.2596 24.7141C48.4209 22.6894 48.2015 20.4614 48.6289 18.3118C49.0566 16.1623 50.112 14.1879 51.6616 12.6381C53.2114 11.0885 55.1858 10.0331 57.3353 9.60553C59.4847 9.17796 61.7127 9.39741 63.7376 10.2361C65.7623 11.0748 67.493 12.4951 68.7106 14.3174C69.9282 16.1395 70.5781 18.282 70.5781 20.4736C70.5736 23.4111 69.4047 26.227 67.3275 28.3042C65.2504 30.3813 62.4345 31.5501 59.4971 31.5546ZM141.985 2.45715C138.421 2.45689 134.938 3.51329 131.975 5.49279C129.012 7.4723 126.703 10.286 125.339 13.578C123.975 16.87 123.618 20.4927 124.313 23.9875C125.008 27.4825 126.724 30.6929 129.244 33.2126C131.763 35.7324 134.973 37.4485 138.469 38.1437C141.962 38.839 145.585 38.4823 148.878 37.1188C152.17 35.7552 154.983 33.446 156.963 30.4831C158.944 27.5203 160 24.037 160 20.4736C159.994 15.6973 158.095 11.1182 154.718 7.74071C151.341 4.36321 146.761 2.46311 141.985 2.45715ZM141.985 31.5546C139.794 31.5549 137.651 30.9051 135.828 29.6877C134.006 28.4704 132.585 26.7398 131.746 24.7151C130.908 22.6903 130.688 20.4622 131.115 18.3126C131.543 16.1631 132.598 14.1886 134.148 12.6387C135.697 11.0888 137.672 10.0333 139.822 9.60562C141.971 9.17795 144.199 9.39731 146.223 10.236C148.249 11.0746 149.98 12.4949 151.198 14.3172C152.414 16.1395 153.065 18.282 153.065 20.4736C153.06 23.4109 151.892 26.2265 149.814 28.3036C147.738 30.3807 144.922 31.5498 141.985 31.5546ZM100.74 2.45715C97.1769 2.45715 93.6936 3.51381 90.7309 5.49348C87.7681 7.47315 85.4589 10.2869 84.0953 13.579C82.7316 16.8711 82.375 20.4935 83.07 23.9884C83.7653 27.4832 85.4811 30.6934 88.0007 33.2131C90.5203 35.7328 93.7306 37.4486 97.2254 38.1439C100.72 38.839 104.343 38.4823 107.635 37.1187C110.927 35.755 113.741 33.4458 115.72 30.483C117.7 27.5202 118.757 24.0368 118.757 20.4736C118.751 15.697 116.851 11.1177 113.474 7.74022C110.096 4.36268 105.517 2.46273 100.74 2.45715ZM100.74 31.5546C98.6983 31.5556 96.6959 30.9924 94.9539 29.9271C93.2119 28.8619 91.798 27.3361 90.8685 25.518C89.939 23.7 89.5298 21.6604 89.6863 19.6245C89.8428 17.5886 90.5587 15.6355 91.7551 13.9808C92.9516 12.3262 94.582 11.0343 96.4663 10.2477C98.3506 9.46116 100.416 9.21057 102.433 9.52358C104.451 9.83661 106.343 10.7011 107.901 12.0216C109.458 13.342 110.62 15.0673 111.259 17.0066H100.74V23.9406H111.259C110.528 26.1536 109.118 28.0801 107.23 29.4467C105.342 30.8134 103.071 31.5508 100.74 31.5546Z" fill="#394149"/>
</svg>
