<svg width="100" height="68" viewBox="0 0 100 68" fill="none" xmlns="http://www.w3.org/2000/svg">
<path d="M64.2022 32.8767C64.2022 49.8992 50.4027 63.6986 33.3803 63.6986C16.3579 63.6986 2.55841 49.8992 2.55841 32.8767C2.55841 15.8543 16.3579 2.05481 33.3803 2.05481C50.4027 2.05481 64.2022 15.8543 64.2022 32.8767Z" fill="#2A2A2A"/>
<path d="M97.4416 32.8767C97.4416 49.8992 83.7772 63.6986 66.9218 63.6986C50.0663 63.6986 36.402 49.8992 36.402 32.8767C36.402 15.8543 50.0663 2.05481 66.9218 2.05481C83.7772 2.05481 97.4416 15.8543 97.4416 32.8767Z" fill="#2A2A2A"/>
<path d="M50.2335 58.6872C58.6451 53.1835 64.2022 43.6792 64.2022 32.8767C64.2022 22.0746 58.6451 12.5701 50.2335 7.06653C41.9046 12.5701 36.402 22.0746 36.402 32.8767C36.402 43.6792 41.9046 53.1835 50.2335 58.6872Z" fill="#585858"/>
</svg>
